<svg width="24" height="24" viewBox="0 0 24 24" fill="none" xmlns="http://www.w3.org/2000/svg">
<path d="M16 2H8C4.691 2 2 4.691 2 8V20C2 20.2652 2.10536 20.5196 2.29289 20.7071C2.48043 20.8946 2.73478 21 3 21H16C19.309 21 22 18.309 22 15V8C22 4.691 19.309 2 16 2ZM20 15C20 17.206 18.206 19 16 19H4V8C4 5.794 5.794 4 8 4H16C18.206 4 20 5.794 20 8V15Z" fill="#ADADAD"/>
<path d="M9.5 13C10.3284 13 11 12.3284 11 11.5C11 10.6716 10.3284 10 9.5 10C8.67157 10 8 10.6716 8 11.5C8 12.3284 8.67157 13 9.5 13Z" fill="#ADADAD"/>
<path d="M14.5 13C15.3284 13 16 12.3284 16 11.5C16 10.6716 15.3284 10 14.5 10C13.6716 10 13 10.6716 13 11.5C13 12.3284 13.6716 13 14.5 13Z" fill="#ADADAD"/>
</svg>
